<svg id="Шар_1" data-name="Шар 1" xmlns="http://www.w3.org/2000/svg" viewBox="0 0 510.67239 496.53699"><defs><style>.cls-1,.cls-4{fill:#303030;}.cls-1,.cls-2,.cls-3{stroke:#303030;}.cls-1,.cls-2,.cls-3,.cls-4{stroke-linecap:round;stroke-linejoin:round;stroke-width:2px;}.cls-2{fill:#dedbdb;}.cls-3{fill:#fff;}.cls-4{stroke:#fff;}</style></defs><path class="cls-1" d="M264.31159,1q-7.3992,0-14.5062.4409c-14.337,7.4058-29.9579,20.0393-38.5357,41.4385A68.08464,68.08464,0,0,1,234.1673,2.9413q-10.418,1.3611-20.17391,3.5955c-13.0325,10.25429-30.7127,29.26429-39.4233,61.0216-3.1422-20.2006,5.0308-40.122,12.0686-52.8286C154.8097,26.6636,129.2258,45.0287,109.204,64.3484c-1.7691,11.4439-3.8131,27.384-4.9314,45.4633-3.6014-9.2285-4.2209-25.0883-4.1443-36.2581-6.3851,6.8051-12.1041,13.6186-17.1871,20.2109-1.3028,15.6824-2.5997,36.7115-2.5997,58.3005-4.1982-13.0145-5.4606-32.3907-5.7605-46.88591q-1.5084,2.171-2.9189,4.28171a127.18281,127.18281,0,0,0-21.3217,70.6961v29.69789L45.1927,161.787c-7.4785,36.6444-6.7307,80.76739-6.7307,80.76739l-3.5294-40.3837c-10.2602,62.0712,0,95.503,0,95.503,28.92-1.642,51.4298-19.1103,70.0634-39.2638-14.2937,5.8539-29.4603,11.2627-36.6201,11.22,21.664-10.9164,37.8358-19.4835,49.0662-25.5999,4.7791-5.831,9.2981-11.6293,13.6111-17.1064L102.8665,239.563s7.9308-5.9792,17.8317-12.5747a304.60356,304.60356,0,0,0,32.3361-25.091c5.0737-4.46909,9.9622-7.36229,14.8052-7.95289,30.66169-3.7392,68.054,22.43539,34.40089,89.53979s4.9562,73.79239-9.722,96.0927c-47.12079,71.5899-1.4957,115.9601-1.4957,115.9601h318.6497V119.3008S419.11579,1,264.31159,1Z"/><path class="cls-2" d="M1,379.57689s57.2602-186.05,139.721-263.40049C60.4122,204.52909,11.2416,371.10589,11.2416,371.10589Z"/><polygon class="cls-3" points="216.706 145.183 224.042 158.599 237.458 165.935 224.042 173.272 216.706 186.687 209.369 173.272 195.953 165.935 209.369 158.599 216.706 145.183"/><polygon class="cls-3" points="193.286 248.656 200.623 262.071 214.038 269.408 200.623 276.745 193.286 290.16 185.949 276.745 172.534 269.408 185.949 262.071 193.286 248.656"/><polygon class="cls-3" points="354.484 313.533 361.821 326.948 375.236 334.285 361.821 341.622 354.484 355.037 347.147 341.622 333.732 334.285 347.147 326.948 354.484 313.533"/><polygon class="cls-3" points="479.927 435.173 487.264 448.588 500.679 455.925 487.264 463.262 479.927 476.677 472.59 463.262 459.175 455.925 472.59 448.588 479.927 435.173"/><polygon class="cls-3" points="333.732 56.142 341.069 69.557 354.484 76.894 341.069 84.231 333.732 97.646 326.395 84.231 312.98 76.894 326.395 69.557 333.732 56.142"/><circle class="cls-4" cx="287.24962" cy="333.60157" r="7.41542" transform="translate(-68.76801 74.65409) rotate(-13.23964)"/><circle class="cls-3" cx="269.64449" cy="322.13649" r="4.0496"/><path class="cls-3" d="M316.61569,289.52839a3.34275,3.34275,0,1,0-3.3428,3.3427A3.34275,3.34275,0,0,0,316.61569,289.52839Z"/><path class="cls-3" d="M421.09459,229.535a3.34275,3.34275,0,1,0-3.3427,3.3428A3.34273,3.34273,0,0,0,421.09459,229.535Z"/><path class="cls-3" d="M121.5819,116.1764a3.34275,3.34275,0,1,0-3.3428,3.34269A3.34275,3.34275,0,0,0,121.5819,116.1764Z"/><path class="cls-3" d="M372.67779,126.8728a7.4155,7.4155,0,1,0,0-10.4871A7.41556,7.41556,0,0,0,372.67779,126.8728Z"/><path class="cls-3" d="M117.0683,53.9697a7.41546,7.41546,0,1,0,0-10.487A7.41556,7.41556,0,0,0,117.0683,53.9697Z"/><path class="cls-3" d="M341.82489,24.1567a7.41546,7.41546,0,1,0,0-10.4871A7.41544,7.41544,0,0,0,341.82489,24.1567Z"/><path class="cls-3" d="M208.79449,253.89989a7.4155,7.4155,0,1,0,0-10.4871A7.41556,7.41556,0,0,0,208.79449,253.89989Z"/><path class="cls-3" d="M448.01069,425.37009a7.4155,7.4155,0,1,0,0-10.4871A7.41556,7.41556,0,0,0,448.01069,425.37009Z"/><polygon class="cls-3" points="466.591 95.082 473.928 108.498 487.343 115.834 473.928 123.171 466.591 136.586 459.254 123.171 445.839 115.834 459.254 108.498 466.591 95.082"/><path class="cls-3" d="M482.0993,100.326a7.4155,7.4155,0,1,0,0-10.4871A7.41555,7.41555,0,0,0,482.0993,100.326Z"/><path class="cls-3" d="M84.5292,245.70469a7.41546,7.41546,0,1,0,0-10.487A7.41556,7.41556,0,0,0,84.5292,245.70469Z"/><path class="cls-4" d="M385.441,253.12019a7.4155,7.4155,0,1,0,0-10.4871A7.41556,7.41556,0,0,0,385.441,253.12019Z"/><path class="cls-4" d="M274.59059,158.1256a7.4155,7.4155,0,1,0,0-10.4871A7.41556,7.41556,0,0,0,274.59059,158.1256Z"/><path class="cls-4" d="M389.184,460.26609a7.41546,7.41546,0,1,0,0-10.4871A7.41544,7.41544,0,0,0,389.184,460.26609Z"/><path class="cls-4" d="M140.1541,98.7234a7.41546,7.41546,0,1,0,0-10.487A7.41556,7.41556,0,0,0,140.1541,98.7234Z"/><circle class="cls-3" cx="398.47709" cy="117.28759" r="4.0496"/><circle class="cls-3" cx="366.45629" cy="18.9132" r="4.0496"/><circle class="cls-3" cx="226.23439" cy="389.03029" r="4.0496"/><circle class="cls-3" cx="258.55759" cy="30.3782" r="4.0496"/><circle class="cls-3" cx="49.9543" cy="129.0447" r="4.0496"/><circle class="cls-3" cx="129.7274" cy="34.4278" r="4.0496"/><circle class="cls-3" cx="165.0095" cy="116.1764" r="4.0496"/><circle class="cls-3" cx="74.6012" cy="248.65629" r="4.0496"/><circle class="cls-3" cx="390.68454" cy="171.19495" r="3.34271"/><circle class="cls-3" cx="309.09359" cy="455.02252" r="7.41549"/><circle class="cls-3" cx="297.62849" cy="472.62759" r="4.0496"/><circle class="cls-3" cx="483.97689" cy="252.95242" r="7.41549"/><circle class="cls-3" cx="472.51179" cy="270.55749" r="4.0496"/><path class="cls-3" d="M265.02039,425.65649a3.34275,3.34275,0,1,0,3.3427,3.3427A3.34273,3.34273,0,0,0,265.02039,425.65649Z"/><path class="cls-3" d="M408.453,391.39389a3.34271,3.34271,0,1,0,0-4.7273A3.34255,3.34255,0,0,0,408.453,391.39389Z"/><path class="cls-3" d="M267.28089,193.1168a3.34271,3.34271,0,1,0,0-4.7273A3.34272,3.34272,0,0,0,267.28089,193.1168Z"/><path class="cls-4" d="M474.87959,314.53049a7.4155,7.4155,0,1,0,0-10.4871A7.41556,7.41556,0,0,0,474.87959,314.53049Z"/><path class="cls-3" d="M467.56989,349.52168a3.3427,3.3427,0,1,0,0-4.72729A3.34272,3.34272,0,0,0,467.56989,349.52168Z"/><path class="cls-3" d="M119.2182,196.4595a3.34271,3.34271,0,1,0,0-4.7273A3.34254,3.34254,0,0,0,119.2182,196.4595Z"/></svg>