<svg width="12" height="16" viewBox="0 0 12 16" fill="none" xmlns="http://www.w3.org/2000/svg">
<g clip-path="url(#clip0_97_1484)">
<path fill-rule="evenodd" clip-rule="evenodd" d="M12 4.5V11H11V4.5H9C8.60218 4.5 8.22064 4.34196 7.93934 4.06066C7.65804 3.77936 7.5 3.39782 7.5 3V1H2C1.73478 1 1.48043 1.10536 1.29289 1.29289C1.10536 1.48043 1 1.73478 1 2V11H0V2C0 1.46957 0.210714 0.960859 0.585786 0.585786C0.960859 0.210714 1.46957 0 2 0L7.5 0L12 4.5Z" fill="black"/>
<path d="M1.80469 11.7285H4.42969V12.4639H1.80469V11.7285ZM2.7334 12.083H3.49805V15.9883H2.7334V12.083Z" fill="black"/>
<path d="M5.79492 13.4482L6.53906 11.7285H7.35938L6.167 14.1279L5.335 15.9883H4.51758L5.79492 13.4482ZM5.80957 14.2744L5.69824 14.043L4.55273 11.7285H5.37012L6.08203 13.3105L6.2168 13.6035L7.4238 15.9883H6.60352L5.80957 14.2744Z" fill="black"/>
<path d="M7.57031 11.7285H10.1953V12.4639H7.57031V11.7285ZM8.49902 12.083H9.26367V15.9883H8.499L8.49902 12.083Z" fill="black"/>
</g>
<defs>
<clipPath id="clip0_97_1484">
<rect width="12" height="15.9883" fill="white"/>
</clipPath>
</defs>
</svg>
