<svg width="12" height="16" viewBox="0 0 12 16" fill="none" xmlns="http://www.w3.org/2000/svg">
<g clip-path="url(#clip0_97_1489)">
<path fill-rule="evenodd" clip-rule="evenodd" d="M12 4.5V11H11V4.5H9C8.60218 4.5 8.22064 4.34196 7.93934 4.06066C7.65804 3.77936 7.5 3.39782 7.5 3V1H2C1.73478 1 1.48043 1.10536 1.29289 1.29289C1.10536 1.48043 1 1.73478 1 2V11H0V2C0 1.46957 0.210714 0.960859 0.585786 0.585786C0.960859 0.210714 1.46957 0 2 0L7.5 0L12 4.5Z" fill="black"/>
<path d="M2.38184 13.4482L3.126 11.7285H3.94631L2.75391 14.1279L1.92191 15.9883H1.10449L2.38184 13.4482ZM2.39648 14.2744L2.28516 14.043L1.13965 11.7285H1.957L2.66892 13.3105L2.80368 13.6035L4.01068 15.9883H3.19043L2.39648 14.2744Z" fill="black"/>
<path d="M6.82324 11.7285H7.69043V15.9883H7.002V12.8477L7.04009 13.0352L6.32232 15.373H5.78906L5.07129 13.0937L5.11523 12.8477V15.9883H4.4209V11.7285H5.294L6.05571 14.3184L6.82324 11.7285Z" fill="black"/>
<path d="M8.42285 11.7285H9.18457V15.9883H8.42285V11.7285ZM8.74805 15.2529H10.7637V15.9883H8.748L8.74805 15.2529Z" fill="black"/>
</g>
<defs>
<clipPath id="clip0_97_1489">
<rect width="12" height="15.9883" fill="white"/>
</clipPath>
</defs>
</svg>
